<?xml version="1.0" encoding="UTF-8"?>
<!DOCTYPE svg PUBLIC "-//W3C//DTD SVG 1.1//EN" "http://www.w3.org/Graphics/SVG/1.1/DTD/svg11.dtd">
<!-- Creator: CorelDRAW 2021.5 (Evaluation Version) -->
<svg xmlns="http://www.w3.org/2000/svg" xml:space="preserve" width="132mm" height="32mm" version="1.1" shape-rendering="geometricPrecision" text-rendering="geometricPrecision" image-rendering="optimizeQuality" fill-rule="evenodd" clip-rule="evenodd"
viewBox="0 0 13200 3200"
 xmlns:xlink="http://www.w3.org/1999/xlink"
 xmlns:xodm="http://www.corel.com/coreldraw/odm/2003">
 <defs>
    <linearGradient id="id0" gradientUnits="userSpaceOnUse" x1="124.03" y1="1982.54" x2="2835.13" y2="1825.89">
     <stop offset="0" stop-opacity="1" stop-color="#FBC854"/>
     <stop offset="0.768627" stop-opacity="1" stop-color="#F3AA45"/>
     <stop offset="1" stop-opacity="1" stop-color="#EB8C35"/>
    </linearGradient>
 </defs>
 <g id="Layer_x0020_1">
  <metadata id="CorelCorpID_0Corel-Layer"/>
  <g id="_2783005893824">
   <path fill="#353745" d="M5123.45 2218.57c-60.4,43.6 -117.56,94.8 -178.21,142.7 -81.77,64.59 -130.11,133 -190.28,72.86 -63.98,-63.94 9.93,-113.55 79.53,-190.75 15.56,-17.26 20.01,-28.28 37.25,-45.07 30.17,-29.39 89,-107.1 111.44,-119.73 65.08,83.76 18.97,62 140.27,139.99zm-767.94 590.98l-1.05 22.96 792.49 -0.04c85.93,0 178.79,16.24 210.62,-51.84 43.31,-92.62 -40.29,-134.14 -121.02,-134.07 -86.94,0.08 -173.87,0.14 -260.81,0.14 -124.01,0 -325.12,28.87 -346.57,-50.14 -12.05,-44.41 14.2,-60.65 30.32,-86.25 68.38,8 54.27,34.27 107.81,-36.71 98.53,3.62 65.33,5.52 209.08,-110.71 30.66,-24.78 165.34,-125.72 181.87,-151.29 -31.44,-26.53 -67.05,-26.7 -102.64,-63.27 -33.07,-33.99 -37.03,-74.15 -64.99,-105.56 -26.89,10.93 -58,56.82 -92.66,92.62 -28.58,29.53 -55.19,64.73 -82.25,96.67 -88.02,103.89 -109.05,83.36 -104.1,163.34 2.71,43.83 -21.43,28.98 -48.66,78.94 -0.81,1.49 -1.56,3.59 -2.37,5.06 -11.03,20.06 5.38,2.09 -19.2,24.57 -77.97,71.32 -21.15,147.98 31.62,161.13 39.73,9.89 444.93,3.8 541,3.46 65.15,-0.23 108.64,-5.14 126.64,50.98 40.26,125.53 -176,92.86 -260.68,92.86 -138,0 -626.77,6.56 -724.45,-2.85z"/>
   <path fill="#353745" d="M5276.65 2045.21l26.52 -4.66 52.98 0.77 -0.02 37.97 -2.2 27.68c-27.48,-6.01 -56.33,-11.71 -77.28,-22.4l0 -39.36zm104.09 47.48l-3.21 -51.4 36.22 0.68 -33.01 50.72zm-172.12 -47.48l46.12 -2.62 -1.45 28.48 -44.67 -25.86zm67.96 -92.62l79.55 -1.52 0 68.41 -52.91 0.58 -26.57 -3.48 -0.07 -63.99zm-96.01 -1.52l74.19 0 0 68.41 -74.18 0 -0.01 -68.41zm197.4 0l54 0.15 -7.9 68.26 -46.1 0 0 -68.41zm-221.03 40.18l-24.59 -40.43c36.81,1.03 27,-3.29 24.59,40.43zm221.03 -136.03c34.17,8.44 40.41,40.76 46.07,73.95l-45.63 0 -0.44 -73.95zm-101.39 1.54l79.55 -1.54 0.4 45.43 -2.38 28.83 -77.5 -2.22 -0.07 -70.5zm-96.24 -1.54l74.42 0 0.39 45.43 -2.35 28.52 -71.45 0 -0.77 -28.55 -0.24 -45.4zm-21.47 2.87l-1.01 69.45 -40.98 2.06 -17.28 -75.03 59.27 3.52zm117.75 -73.45c17.25,1.24 32.78,6.02 47.74,12.87 22.83,10.46 27.47,11.5 31.81,36.41l-79.55 -3.41 0 -45.87zm-21.93 -6.64l0 55.33 -74.03 0 -0.16 -48.17 74.19 -7.16zm-143.04 53.71c15.85,-12.86 22.97,-22 46.6,-31.39l0.64 30.36c-10.84,1.9 -14.32,4.27 -26.85,3.34l-20.39 -2.31zm77.03 -65.33c-131.73,37.4 -140.44,99.05 -67.45,211.96 39.48,61.07 120.95,143.36 230.41,149.83 62.71,3.71 132.64,-136.28 82.02,-245.85 -35.59,-77.05 -123.1,-150.54 -244.98,-115.94z"/>
   <path fill="#CCA346" d="M5664.56 2829.89c22.43,15.6 50.31,20.66 81.36,27.55 106.39,23.59 154.26,20.83 267.06,5.45 107.97,-14.72 229.98,-31.54 312.1,-81.87 228.1,-139.81 342.57,-417.64 124.11,-627.05 -216.75,-207.79 -163.68,-212.57 -108.03,-384.25 42.79,-131.96 36.89,-209.92 -45.17,-295.93 -53.87,-56.45 -158.92,-121.44 -270.59,-130.12 33.66,32.27 128.74,37.89 188.67,174.66 67.37,153.76 -92.63,317.44 -53.43,418.36 32.95,84.82 167.1,170.11 232.66,288.41 108.1,195.12 -43.85,401.44 -152.22,479.53 -165.54,119.3 -371.74,125.92 -576.52,125.26z"/>
   <path fill="#CCA346" d="M5903.5 2624.56c128.61,-10.22 -13.03,-143.57 -44.71,-41.77 -23.52,75.54 68.92,112.29 124.34,72.61 101.27,-72.5 112.82,-301.65 239.47,-229.92 7.49,28.43 8.8,59.58 -17.4,72.29 -41.43,20.09 -30.81,-17.25 -70.02,-2.49 30.37,82.52 162.55,0.71 108.58,-76.11 -49.93,-71.09 -130.41,-16.66 -160.91,30.29 -37.9,58.33 -48.27,117.89 -94.97,165.56 -99.59,101.67 -151.66,-73.34 -61.14,-36.01 -7.75,47.66 -12.84,-14.78 -23.24,45.55z"/>
   <path fill="#CCA346" d="M5559.14 2520.34c-19.89,-30.75 -14.11,-14.72 -41.15,-11.89 -74.88,7.83 -61.75,-117.77 25.5,-74.54 51.01,25.27 77.57,126.23 110.97,180.01 18.63,30 42.73,61.26 82.15,66.6 128.45,17.42 95.61,-163.46 10.51,-113.49 -27.12,15.92 -32.38,69.11 29.79,67.77 -3.79,-34.11 -12.4,-15.26 -21.38,-45.55 42.04,-5.31 46.25,4.49 38.18,49.31 -120.03,72.4 -145.41,-144.69 -210.41,-206.6 -43.2,-41.14 -125.94,-51.97 -139.6,20.7 -8.72,46.41 34.68,112.83 115.44,67.68z"/>
   <path fill="#FFCC57" d="M5559.14 2520.34c-80.76,45.15 -124.16,-21.27 -115.44,-67.68 13.66,-72.67 96.4,-61.84 139.6,-20.7 65,61.91 90.38,279 210.41,206.6 8.07,-44.82 3.86,-54.62 -38.18,-49.31 8.98,30.29 17.59,11.44 21.38,45.55 -62.17,1.34 -56.91,-51.85 -29.79,-67.77 85.1,-49.97 117.94,130.91 -10.51,113.49 -39.42,-5.34 -63.52,-36.6 -82.15,-66.6 -33.4,-53.78 -59.96,-154.74 -110.97,-180.01 -87.25,-43.23 -100.38,82.37 -25.5,74.54 27.04,-2.83 21.26,-18.86 41.15,11.89zm344.36 104.22c10.4,-60.33 15.49,2.11 23.24,-45.55 -90.52,-37.33 -38.45,137.68 61.14,36.01 46.7,-47.67 57.07,-107.23 94.97,-165.56 30.5,-46.95 110.98,-101.38 160.91,-30.29 53.97,76.82 -78.21,158.63 -108.58,76.11 39.21,-14.76 28.59,22.58 70.02,2.49 26.2,-12.71 24.89,-43.86 17.4,-72.29 -126.65,-71.73 -138.2,157.42 -239.47,229.92 -55.42,39.68 -147.86,2.93 -124.34,-72.61 31.68,-101.8 173.32,31.55 44.71,41.77zm-184.42 -645.81c-89.43,-48.81 -73.86,-206.04 4.53,-267.04 4.57,-61.01 11,-304.52 -1.05,-352.3 -102.12,6.9 -299.41,136.32 -299.04,303.03 0.38,177.68 188.88,308.49 69.3,457.43 -44.69,55.67 -98.59,98.17 -134.36,170.38 -141.53,285.75 164.35,532.36 306.1,539.64 204.78,0.66 410.98,-5.96 576.52,-125.26 108.37,-78.09 260.32,-284.41 152.22,-479.53 -65.56,-118.3 -199.71,-203.59 -232.66,-288.41 -39.2,-100.92 120.8,-264.6 53.43,-418.36 -59.93,-136.77 -155.01,-142.39 -188.67,-174.66l-39.95 -4.92c-59.75,-3.04 -16.17,-2.5 -32.88,11.01 3.33,81.58 22.25,90.89 -52.58,96.52 -4.48,36.84 -2.96,74.73 -2.23,111.92 2.02,103.21 -3.57,62.39 -9.06,111.73 22.66,21.37 197.75,96 83.84,267.15 -18.7,28.11 -50.7,50.51 -71.12,68.17l0.01 155.85c-13.5,-18.28 -6.81,-0.97 -9.9,-29.43l-0.76 -121.77c-30.03,9.15 -26.11,5.32 -27.42,38.87 -0.97,24.82 -10.41,206.26 13.13,207.51 26.67,1.42 12.92,-14.44 16.67,-72.7 20.03,27.84 1.4,34.71 13.11,68.37l138.21 -0.73 -26.8 85.66 -429.16 9.27 -22.9 -78.67 149.61 -6.69 3.86 -282.04z"/>
   <path fill="#353745" d="M5344.2 2149.98c-1.87,-1.54 -4.93,-5.66 -6.17,-3.85l-18.58 -9.06c-56.63,-20.31 -83.28,-9.64 -161.54,-83.5 -43.79,-41.34 -83.69,-103.4 -91.89,-186.42 -68.68,59.71 -54.23,191.78 9.97,260.85 22.18,23.85 71.99,53.68 122.68,58.42 65.37,6.09 102.48,-17.42 145.53,-36.44z"/>
   <path fill="#FFCC57" d="M5701.27 152.24c0.3,63.17 90.53,64.43 100.33,110.67 0,41.04 -12.94,125.78 7.88,153.96 30.89,-5.86 19.17,-26.57 19.04,-64.35 -0.28,-89.51 -14.17,-112.7 40.52,-119.39l20.35 -16.74c15.34,-8.64 65,-16.71 59.04,-56.59 -41.76,-32.01 -201.54,-41.18 -247.16,-7.56z"/>
   <path fill="#FFCC57" d="M5869.04 233.13c-9.76,13.56 -25.92,17.72 -29.18,29.78 -0.29,41.4 -14.42,125.18 6.84,153.96 16.14,-19.45 8.12,-68.47 9.89,-99.41l81.54 -52.94c1.14,-1.16 2.87,-2.61 3.88,-3.89 16.08,-20.4 13.56,-35.46 2.87,-45.16 -29.53,-10.67 -38.61,13.61 -75.84,17.66z"/>
   <path fill="#FFCC57" d="M5866.6 320.02l1.14 97.82c1.6,-1.42 2.78,-6 3.16,-4.92 0.38,1.1 2.14,-3.9 2.65,-5.01 0.68,-1.46 3.57,-8.54 4.52,-10.48 10.03,-20.31 -6.95,-2.51 15.05,-21.46 12.86,-11.09 31.76,-15.59 40.29,-36.75 9.1,-22.54 12.04,-47.63 -17.46,-44.48 -0.65,0.07 -41.82,22.8 -49.35,25.28z"/>
   <path fill="#353745" d="M4354.46 2832.51l1.05 -22.96 30.92 -444.59 -80.95 -1.12c-35.81,97.55 -45.52,222.08 -161.52,297.99 -99.58,65.17 -270.07,69.04 -402.62,61.73 -350.66,-19.35 -272.16,-218.87 -272.26,-662.73 99.38,1.21 223.6,-6.4 310.53,30.92 112.93,48.46 98.09,161.75 124.17,216.4l73.96 1.97 -0.15 -608.27 -76.31 0.77c-23.24,116.4 -21.79,181.34 -117.09,219.94 -84.93,34.4 -215.64,32 -315.11,32 0,-96.91 -19.02,-546 16.87,-591.02 49.3,-32.98 408.59,-14.09 484.47,1.52 230.17,47.37 200.48,202.57 238.57,280.58l86.23 2.19 -14.43 -406.05 -1310.9 -1.82c-9.8,141.36 24.46,59.67 125.57,106.71 55.79,25.97 65.12,97.07 67.66,174.5 8.97,274.06 0.89,678.84 0.74,967.6 -0.11,203.8 -6.79,258.7 -216.34,267.38l0 82.48c147.59,0 1380.86,11.37 1406.94,-6.12z"/>
   <path fill="#353745" d="M7330.45 2707.13c-98.16,44.37 -195.95,5.85 -240.7,-54.54 -46.4,-62.62 -60.77,-166.71 -65,-260.36 -7.76,-171.71 9.45,-529.9 -3.73,-653.55l-461.74 -0.04 -1.11 84.73c98.87,8.66 158.15,12.12 171.22,111.11 29.35,222.44 -45.54,540.74 79.77,745.4 137.45,224.5 501.95,231.76 667.78,61.94 13.53,-13.87 46.1,-57.54 63.4,-62.63l21.93 178.45c59.28,11.87 330.73,-16.02 413.27,-20.54l0.71 -80.44c-122.86,-4.77 -166.86,4.35 -182.69,-120.87 -11.6,-91.8 -8.34,-202.47 -8.34,-295.96 0.02,-193.03 8.75,-407.4 -0.78,-600.95l-467.31 1.9c-7.12,99.56 -11.12,77.82 71.51,92.03 54.71,9.41 79.41,23.57 94.86,69.06 19.98,58.79 13.06,239.6 13.08,311.41 0.03,197.02 -11.16,423.78 -166.13,493.85z"/>
   <path fill="#353745" d="M10357.36 1738.04l-221.98 0.69 -2.58 113.54 221.03 0.06c11.08,51.55 11.45,717.07 -7,804.5 -18.97,89.96 -79.52,94.8 -176.33,99.52l0 82.28 701.95 0 -0.18 -82.48c-241.71,-20.49 -226.31,-94.27 -226.26,-334.43 0.05,-189.79 -0.62,-379.67 0,-569.44l347.74 -0.08 3.03 -112.56 -350.77 -1.02c-0.5,-117.22 -4.59,-248.54 28.69,-354.98 26.73,-85.46 90.83,-190.54 203.91,-137.98 79.44,36.92 114.18,160.19 216.14,156.57 51.8,-1.83 95.12,-37.36 106.84,-79.92 53.53,-194.44 -382.61,-286.66 -632.89,-118.98 -202.97,135.99 -211.11,324.05 -211.34,534.71z"/>
   <path fill="#353745" d="M13090.28 2676.92c-3.66,-31.06 -29.23,-65.52 -52.5,-86.19 -39.52,20.05 -72.36,48.64 -122.54,73.06 -45.96,22.36 -91.56,37.8 -149.81,44.55 -460.94,53.46 -390.43,-599.55 -307.12,-747.29 67.53,-119.76 198.61,-148.91 261.64,-107.22 69.51,45.97 111.42,170.94 180.36,214.29 195.86,123.16 355.96,-204.24 -8.55,-319.43 -451.6,-142.72 -910.68,181.09 -798.05,686.92 45.37,203.75 190.87,348.77 393.56,395.38 113.48,26.09 244.08,24.04 353.91,-10.18 127.32,-39.67 171.62,-83.22 249.1,-143.89z"/>
   <path fill="#353745" d="M8163.29 1794.13l-1.06 73.43c121.27,7.2 158.15,24.22 179.04,136.78 17.18,92.61 17.87,508.94 9.53,611.77 -10.15,125.03 -59.55,131.84 -181.63,140.12l0.08 82.4 694.2 0 -0.75 -81.97c-119.05,-0.06 -195.05,-2.81 -212.93,-114.34 -23.95,-149.31 -5.52,-456.44 56.92,-598.96 44.18,-100.82 82.02,-144.5 180.56,-71.7 210.08,155.21 352.05,-157.07 156.61,-238.34 -123.37,-51.29 -288.47,33.08 -356.09,120.07 -21.23,27.31 -49.09,75.08 -71.83,101.02 -11.29,-17.1 -11.18,-27.75 -14.6,-53.66l-24.13 -179.62 -413.92 73z"/>
   <path fill="#353745" d="M9298.62 1865.58c124.73,19.35 169.85,-6.17 182.99,138.86 8.88,98 7.96,206.14 7.97,305.62 0,305.75 40.87,433.05 -184.79,445.81l0.2 82.76 653.86 0 0 -82.44c-111.59,-5.03 -161.85,-21.73 -175.2,-132.61 -11.88,-98.57 -5.48,-774.41 -5.55,-905.37l-481.94 81.33 2.46 66.04z"/>
   <path fill="#353745" d="M11201 1867.48c125.73,4.72 167.69,4.78 180.04,134.87 9.48,99.9 15.19,529.62 2.02,619.17 -16.25,110.57 -64.4,125.84 -178.69,134.51l0 82.7 654.02 -3.35 0 -75.46c-104.26,-26.33 -157.37,4.22 -174.43,-130.34 -12.84,-101.27 -6.07,-776.89 -6.3,-911.19l-482.5 76.95 5.84 72.14z"/>
   <path fill="#E98734" d="M9588.47 1122.27c-186.66,47.56 -132.79,361.13 86.1,310.4 74.71,-17.32 138.53,-100.02 114.02,-198.75 -19.75,-79.56 -100.25,-137.09 -200.12,-111.65z"/>
   <path fill="#E98734" d="M11483.77 1124.57c-70.79,19.83 -136.55,107.99 -102.39,206.44 66.82,192.56 369.99,100.85 304.48,-103.37 -24.18,-75.38 -100.08,-131.66 -202.09,-103.07z"/>
   <path fill="#E98734" d="M5866.6 320.02c7.53,-2.48 48.7,-25.21 49.35,-25.28 29.5,-3.15 26.56,21.94 17.46,44.48 -8.53,21.16 -27.43,25.66 -40.29,36.75 -22,18.95 -5.02,1.15 -15.05,21.46 -0.95,1.94 -3.84,9.02 -4.52,10.48 -0.51,1.11 -2.27,6.11 -2.65,5.01 -0.38,-1.08 -1.56,3.5 -3.16,4.92l-1.14 -97.82zm2.44 -86.89c37.23,-4.05 46.31,-28.33 75.84,-17.66 10.69,9.7 13.21,24.76 -2.87,45.16 -1.01,1.28 -2.74,2.73 -3.88,3.89l-81.54 52.94c-1.77,30.94 6.25,79.96 -9.89,99.41 -21.26,-28.78 -7.13,-112.56 -6.84,-153.96 3.26,-12.06 19.42,-16.22 29.18,-29.78zm-146.48 1126.28c12.05,47.78 5.62,291.29 1.05,352.3l-4.53 267.04 -3.86 282.04 -149.61 6.69 22.9 78.67 429.16 -9.27 26.8 -85.66 -138.21 0.73c-11.71,-33.66 6.92,-40.53 -13.11,-68.37 -3.75,58.26 10,74.12 -16.67,72.7 -23.54,-1.25 -14.1,-182.69 -13.13,-207.51 1.31,-33.55 -2.61,-29.72 27.42,-38.87l0.76 121.77c3.09,28.46 -3.6,11.15 9.9,29.43l-0.01 -155.85c20.42,-17.66 52.42,-40.06 71.12,-68.17 113.91,-171.15 -61.18,-245.78 -83.84,-267.15 5.49,-49.34 11.08,-8.52 9.06,-111.73 -0.73,-37.19 -2.25,-75.08 2.23,-111.92 74.83,-5.63 55.91,-14.94 52.58,-96.52 16.71,-13.51 -26.87,-14.05 32.88,-11.01l-33.61 -11.33c-13.25,-199.47 -26.55,-402.28 -30.99,-602.97 -7.54,-340.25 42.99,-300.09 46.15,-347.45 1.42,-21.26 -4.52,-32.14 6.39,-61.72 20.5,-55.58 7.14,-10.86 7.26,-60.28 0.15,-54.92 7.26,-14.49 22.94,-55.45l-55.16 -39.75c5.96,39.88 -43.7,47.95 -59.04,56.59l-20.35 16.74c-54.69,6.69 -40.8,29.88 -40.52,119.39 0.13,37.78 11.85,58.49 -19.04,64.35 -20.82,-28.18 -7.88,-112.92 -7.88,-153.96 -9.8,-46.24 -100.03,-47.5 -100.33,-110.67 -13.81,18.65 -9.08,12.27 -30.88,22.96 -39.04,19.15 -20.84,-7.02 -28.54,32.02l45.86 6.13 14.56 34.67c-24.34,26.25 -33.52,-2.28 -48.49,42.04l55.56 2.67 7.69 52.06c-27.7,19.95 -40.01,-1.88 -48.13,36.38 76.69,24.8 70.77,-58.69 63.19,201.85 -2.46,84.6 -4.46,168.06 -6.03,253.3l-3.5 523.09z"/>
   <path fill="#B38F3D" d="M5719.08 1978.75l4.53 -267.04c-78.39,61 -93.96,218.23 -4.53,267.04z"/>
   <path fill="url(#id0)" d="M124.03 1982.54l0 11.38c9.51,0.21 11.27,5.8 18.96,9.48l17.65 10.8c0.52,0.25 2.05,0.97 2.57,1.22l31.64 13.88c0.38,0.2 0.87,0.45 1.25,0.64 0.38,0.2 0.88,0.44 1.26,0.64l34.77 16.44c0.48,0.14 1.01,0.24 1.5,0.39l4.21 1.47c0.41,0.18 0.9,0.42 1.3,0.6l127.25 47.22c0.47,0.16 0.99,0.29 1.45,0.45l44.45 16.24c0.45,0.15 0.93,0.35 1.38,0.51l38.94 14.16c0.46,0.15 0.94,0.35 1.4,0.5l9.98 3.29c0.46,0.15 0.94,0.35 1.39,0.5l2.79 1c2.18,0.73 3.63,1.07 5.8,1.79l44.08 14.71c0.47,0.15 0.97,0.31 1.43,0.47l35.54 11.87c0.45,0.16 0.94,0.35 1.39,0.51l18.53 6.12c0.47,0.15 0.97,0.31 1.44,0.46l79.09 25.21c1.73,0.58 2.59,0.75 4.35,1.34l38.32 12.89c1.46,0.5 2.27,0.73 4.3,1.38l63.89 21.44c4.16,1.26 1.72,0.5 6.27,1.32l40.33 12.77c0.45,0.15 0.94,0.35 1.39,0.51 0.45,0.16 0.94,0.35 1.39,0.5l45.13 13.67c0.46,0.15 0.94,0.33 1.4,0.49l120.36 38.94c0.45,0.16 0.94,0.34 1.4,0.5 0.46,0.15 0.97,0.31 1.43,0.46l47.88 14.71c0.46,0.15 0.96,0.31 1.43,0.46 2.44,0.79 3.88,1.18 5.76,1.82l15.56 5.3c2.17,0.73 3.62,1.07 5.8,1.79l38.32 12.89c0.45,0.15 0.94,0.34 1.4,0.5l34.13 11.37c1.78,0.59 2.59,0.76 4.36,1.33l11.38 3.79c0.47,0.16 0.97,0.31 1.43,0.47l9.95 3.33c0.46,0.15 0.97,0.31 1.43,0.46l5.59 2c0.46,0.15 0.96,0.31 1.43,0.46l17.14 5.62c0.45,0.15 0.94,0.35 1.39,0.51l14.14 4.82c3.34,0.87 3.43,0.5 6.5,1.09l31.46 10.26c2.17,0.72 3.62,1.07 5.8,1.79 0.45,0.15 0.94,0.34 1.4,0.49l34.13 11.38c0.46,0.16 0.94,0.35 1.39,0.51l7.16 2.33c0.46,0.15 0.96,0.31 1.43,0.46l54.89 17.17c2.17,0.73 3.62,1.07 5.79,1.8 0.46,0.15 0.95,0.33 1.4,0.49 0.46,0.16 0.94,0.35 1.4,0.51l79.65 26.55c23.01,7.97 21.91,3.7 35.45,8.16 0.46,0.15 0.9,0.38 1.38,0.51l36.21 -0.09c0.49,-0.14 0.95,-0.34 1.42,-0.49 16.52,-5.33 25.24,0.33 45.59,-7.52l7.58 -3.79c0.53,-0.25 2.08,-0.94 2.64,-1.16l35.61 -11.79c1.86,-0.6 2.66,-0.72 4.41,-1.28 0.47,-0.15 0.99,-0.28 1.45,-0.45l33.07 -12.44c0.45,-0.16 0.93,-0.36 1.39,-0.52l7.19 -2.28c0.46,-0.15 0.95,-0.34 1.4,-0.49l36.8 -14.42c0.38,-0.19 0.87,-0.43 1.26,-0.63 0.39,-0.19 0.88,-0.44 1.26,-0.63 0.39,-0.19 0.88,-0.44 1.27,-0.63l5.05 -2.53c0.39,-0.2 0.88,-0.44 1.27,-0.63l24.07 -11.96c7.84,-3.84 11.97,-10.48 20.05,-14.09 0.54,-0.24 2.12,-0.89 2.7,-1.1 0.45,-0.16 0.95,-0.33 1.41,-0.48l22.5 -9.74c0.33,-0.22 0.78,-0.56 1.1,-0.79 0.46,-0.33 1.61,-1.41 2.06,-1.74 4.63,-3.43 0.01,-1.01 4.68,-2.9l116.13 -58.34c0.38,-0.2 0.88,-0.44 1.26,-0.64l8.88 -4.39c0.39,-0.19 0.9,-0.42 1.29,-0.61l26.5 -15.23c0.38,-0.19 0.87,-0.44 1.26,-0.63l94.81 -49.31c2.59,-1.27 -0.04,0.02 2.54,-1.26l84.65 -42.4c0.34,-0.23 0.79,-0.55 1.12,-0.78l33.07 -18.13c0.39,-0.2 0.88,-0.44 1.26,-0.64 0.39,-0.19 0.88,-0.43 1.27,-0.63l6.32 -3.16c0.39,-0.19 0.88,-0.44 1.27,-0.63l6.32 -3.16c0.38,-0.2 0.87,-0.44 1.26,-0.63l20.23 -10.12c0.39,-0.19 0.87,-0.44 1.26,-0.63 0.39,-0.19 0.88,-0.44 1.27,-0.63l6.32 -3.17c0.38,-0.19 0.88,-0.43 1.26,-0.63l6.32 -3.16c0.39,-0.19 0.88,-0.43 1.27,-0.63l20.23 -10.11c0.39,-0.2 0.87,-0.44 1.26,-0.63 0.39,-0.2 0.88,-0.44 1.27,-0.64l48.14 -25.92c0.37,-0.18 0.85,-0.44 1.21,-0.63l11.33 -5.69c0.39,-0.19 0.88,-0.44 1.26,-0.63l10.12 -5.06c0.39,-0.19 0.88,-0.43 1.26,-0.63 0.39,-0.19 0.88,-0.44 1.27,-0.63 1.31,-0.66 1.43,-0.72 2.53,-1.26 3.51,-1.76 -0.99,0.49 2.53,-1.27 1.44,-0.72 3.6,-1.8 5.05,-2.53l6.32 -3.16c0.39,-0.19 0.88,-0.43 1.27,-0.63l10.11 -5.06c0.39,-0.19 0.88,-0.43 1.27,-0.63l6.32 -3.16c0.52,-0.26 2,-1 2.52,-1.26 3.61,-1.8 -0.16,0.08 2.53,-1.27 0.52,-0.26 2.01,-1 2.53,-1.26l10.12 -5.06c0.38,-0.19 0.87,-0.44 1.26,-0.63 0.39,-0.19 0.88,-0.44 1.26,-0.63l17.71 -8.86c0.51,-0.25 2,-1 2.52,-1.26l16.44 -8.21c0.38,-0.2 0.88,-0.44 1.26,-0.64l2.53 -1.26c0.39,-0.2 0.88,-0.44 1.27,-0.64l101.14 -52.46c0.38,-0.19 0.87,-0.44 1.26,-0.63l3.79 -1.9c0.52,-0.26 2.01,-1.01 2.53,-1.26 1.45,-0.73 3.61,-1.81 5.06,-2.53 0.52,-0.26 2.01,-1.01 2.53,-1.27l13.91 -6.95c0.38,-0.2 0.87,-0.44 1.26,-0.63l6.32 -3.16c0.39,-0.2 0.88,-0.44 1.26,-0.63l13.91 -6.96c0.39,-0.19 0.88,-0.44 1.27,-0.63l29.08 -14.54c0.38,-0.19 0.87,-0.44 1.26,-0.63l77.12 -36.66c0.39,-0.2 0.88,-0.44 1.26,-0.64 0.39,-0.19 0.88,-0.43 1.27,-0.63 0.39,-0.19 0.88,-0.44 1.26,-0.63l5.06 -2.53c0.39,-0.2 0.88,-0.44 1.27,-0.63 0.38,-0.2 0.87,-0.44 1.26,-0.63l16.76 -7.9c2.58,-0.49 4.64,-0.32 7.26,-0.32 -0.23,10.22 -2.07,2.62 -3.59,13.47 -0.36,2.52 -0.05,4.67 -0.4,7.19 -1.41,10.05 -2,5.06 -3.59,13.47l-20.94 68.2c-0.15,0.46 -0.37,0.92 -0.5,1.39l-11.31 38c-0.5,1.46 -0.74,2.28 -1.39,4.3l-4.24 12.83c-0.15,0.46 -0.32,0.96 -0.48,1.42 -0.15,0.45 -0.36,0.93 -0.52,1.38l-6.14 24.19c-1.6,8.42 -2.19,3.42 -3.6,13.48l-7.42 28.61c-1.03,5.23 0.25,11.47 -0.45,16.61 -1.43,10.26 -3.75,1.01 -3.7,30.44 0.04,25.74 -2.12,80.98 -0.07,104.37 1.36,15.64 1.82,-0.06 3.77,13.29 1.7,11.61 -2,24.76 1.99,35.94 0.16,0.44 0.43,0.88 0.58,1.32 0.15,0.45 0.39,0.91 0.52,1.38 0.99,3.47 0.9,4.75 0.92,8.56 0.03,6.24 -0.74,12.01 1.19,17.77 0.15,0.44 0.43,0.88 0.58,1.32l2 20.76c1.5,10.88 0.64,1.87 2.37,7.11l13.33 45.45c0.19,0.39 0.44,0.88 0.63,1.27l8.31 16.35c0.13,0.19 3.22,3.72 3.56,4.02 5.88,5.2 15.01,8.55 21.2,12.93l16.77 9.79c5.21,3.97 9.51,3.11 15.78,5.08 0.45,0.14 0.9,0.39 1.35,0.54 8.82,2.94 60.1,4.03 70.86,0.61l18.88 -7.66c0.41,-0.19 0.89,-0.43 1.3,-0.6l10.1 -3.17c9.8,-3.55 18.59,-12.28 25,-20.52 2.12,-2.71 0.56,-0.71 2.22,-3.47 4.5,-7.53 -3.21,4.93 1.32,-2.47l1.47 -2.32c0.36,-0.51 3.83,-4.96 4.06,-5.42l4.41 -12.67c2.78,-10.54 -1.33,-23.85 2.07,-33.95l2.48 -13.88 0 -45c-0.33,-2.06 -0.76,-3.95 -1.32,-5.6 -7.79,-23.1 2.17,-68.68 -2.85,-91.97l-1.52 -4.17c-5.01,-14.04 -1.55,-38.16 -1.76,-53.24l-3.13 -13.93c-2.88,-10.08 0.62,-22.91 -0.89,-33.25 -1.96,-13.35 -2.41,2.34 -3.78,-13.29 -1.16,-13.33 1.1,-28.95 -2.4,-39.32 -2.4,-7.11 -0.57,-17.49 -1.24,-25.3 -1.09,-12.54 -4.08,-4.16 -3.86,-32.18 0.03,-4.3 0.44,-12.86 -0.39,-16.68 -4.15,-19.27 -2.88,-0.13 -3.27,-30.86 -0.03,-2.36 -0.02,-4.77 -0.52,-7.07l-2.62 -6.86c-3.91,-13.75 -0.97,-81.7 -0.78,-103.52 0.05,-5.36 0.55,-11.32 -0.77,-16.3l-4.43 -12.64c-0.44,-1.28 -0.58,-1.49 -1.01,-2.78l-11.81 -26.11c-3.19,-4.01 -1.4,-1.53 -4.72,-4.77l-29.08 -24.02c-0.49,-0.3 -1.97,-1.04 -2.49,-1.3l-83.64 -35.84c-0.45,-0.15 -0.94,-0.34 -1.4,-0.49l-5.79 -1.8c-0.46,-0.15 -0.95,-0.33 -1.41,-0.49l-48.22 -16.25c-3.02,-0.92 -1.01,-0.41 -4.59,-1.1 -3.14,-0.61 -3.07,-0.2 -6.47,-1.12 -0.48,-0.13 -0.95,-0.33 -1.42,-0.47 -0.47,-0.14 -0.91,-0.38 -1.37,-0.53l-31.71 -8.11c-0.48,-0.14 -0.94,-0.34 -1.43,-0.47l-26.52 -7.62c-3.31,-0.87 -3.47,-0.5 -6.49,-1.09l-19.77 -4.89c-0.46,-0.14 -0.93,-0.35 -1.39,-0.5l-25.1 -7.13c-0.47,-0.14 -0.92,-0.38 -1.38,-0.53 -0.45,-0.15 -0.9,-0.39 -1.37,-0.53 -0.47,-0.14 -0.93,-0.34 -1.42,-0.47l-15.17 -3.8c-0.51,-0.13 -0.99,-0.26 -1.51,-0.38l-15.03 -3.93c-13.67,-2.88 -29.41,-0.26 -43.29,-0.41l-37.09 8.42c-9.79,4.24 -1.75,6.79 -17.86,6.79l0 7.59c-5.5,0.12 -2.5,-0.1 -6.35,1.24l-24 12.03c-0.38,0.19 -0.87,0.44 -1.26,0.63l-10.12 5.06c-0.38,0.19 -0.87,0.44 -1.26,0.63l-2.53 1.26c-0.39,0.2 -0.87,0.44 -1.26,0.63l-6.32 3.17c-0.39,0.19 -0.88,0.44 -1.27,0.63l-10.11 5.06c-0.39,0.19 -0.88,0.44 -1.27,0.63l-11.37 5.69c-1.12,0.56 -1.3,0.64 -2.53,1.26l-7.59 3.79c-0.39,0.2 -0.87,0.44 -1.26,0.64l-2.53 1.26c-0.39,0.19 -0.88,0.44 -1.27,0.63l-10.11 5.06c-0.16,0.08 -2.09,1.05 -2.53,1.26l-5.06 2.53c-0.38,0.2 -0.87,0.44 -1.26,0.64l-2.53 1.26c-0.39,0.19 -0.87,0.44 -1.26,0.63l-10.12 5.06c-0.15,0.07 -2.09,1.05 -2.53,1.26l-5.05 2.53c-0.39,0.19 -0.88,0.44 -1.27,0.63l-2.52 1.27c-0.39,0.19 -0.88,0.44 -1.27,0.63l-39.19 19.83c-0.38,0.18 -0.89,0.4 -1.27,0.57l-26.54 13.1c-0.39,0.19 -0.88,0.44 -1.27,0.63l-6.32 3.17c-0.39,0.19 -0.88,0.44 -1.27,0.63l-10.11 5.06c-0.39,0.19 -0.88,0.43 -1.26,0.63l-2.53 1.26c-0.39,0.19 -0.88,0.44 -1.27,0.63l-6.32 3.16c-0.39,0.2 -0.87,0.44 -1.26,0.64l-10.12 5.05c-0.38,0.2 -0.87,0.44 -1.26,0.64l-2.53 1.26c-0.39,0.19 -0.88,0.44 -1.27,0.63l-6.32 3.16c-0.38,0.2 -0.87,0.44 -1.26,0.63 -0.52,0.26 -2.01,1.01 -2.53,1.27l-61.95 30.98c-0.39,0.19 -0.87,0.43 -1.26,0.63l-264.24 134.01c-1.44,0.72 -3.6,1.8 -5.05,2.53l-112.52 58.15c-0.39,0.2 -0.88,0.44 -1.27,0.64 -0.38,0.19 -0.88,0.43 -1.26,0.63l-139.07 69.53c0,0 -2.53,1.26 -2.53,1.26l-45.5 22.78c-0.38,0.19 -0.86,0.45 -1.25,0.64l-3.74 1.94c-3.41,1.56 -0.07,0.25 -4.06,1.64 -9.37,3.26 -18.3,5.31 -29.65,4.76 -3.54,-0.17 -3.45,-0.05 -6.67,-0.94 -0.48,-0.12 -0.93,-0.36 -1.38,-0.51 -0.46,-0.14 -0.9,-0.41 -1.34,-0.56l-107.48 -38.54c-0.44,-0.17 -0.95,-0.34 -1.4,-0.49 -0.47,-0.16 -0.98,-0.29 -1.46,-0.45l-40.27 -14.72c-2.12,-0.74 -2.39,-0.64 -4.41,-1.28l-32.02 -11.6c-0.38,-0.2 -0.85,-0.47 -1.24,-0.65l-12.71 -4.37c-0.45,-0.15 -0.93,-0.35 -1.38,-0.5 -0.47,-0.16 -0.95,-0.34 -1.42,-0.49 -2.38,-0.78 -3.49,-0.91 -5.85,-1.73 -0.46,-0.16 -0.96,-0.32 -1.4,-0.49 -0.44,-0.17 -0.93,-0.37 -1.35,-0.55 -0.41,-0.17 -0.9,-0.42 -1.3,-0.6l-7.58 -3.8c-3.1,-1.19 -3.92,-1.13 -7.26,-2.22l-26.66 -7.48c-0.48,-0.13 -0.98,-0.29 -1.44,-0.45l-34.39 -13.02c-0.47,-0.15 -0.97,-0.31 -1.44,-0.46l-20.97 -9.37c-0.53,-0.24 -2.09,-0.92 -2.65,-1.14 -3.09,-1.17 -2.62,-0.75 -5.83,-1.76l-2.85 -0.95c-0.45,-0.15 -0.93,-0.35 -1.38,-0.5l-14.18 -4.79c-0.46,-0.16 -0.97,-0.32 -1.43,-0.47l-130.93 -47.33c-1.61,-0.55 -1.16,-0.47 -2.78,-1.01 -1.59,-0.54 -2.2,-0.7 -4.33,-1.37l-71.38 -29.12c-0.38,-0.2 -0.87,-0.46 -1.24,-0.65l-7.79 -3.6c-2.64,-0.73 -1.55,-0.72 -4.9,-0.79l12.72 -8.15c11.98,-7.42 0.08,-2.17 12.52,-8.34l55.68 -27.76c1.39,-0.7 0.9,-0.45 2.53,-1.27l27.81 -13.9c1.4,-0.7 0.91,-0.45 2.53,-1.27l51.78 -27.86c0.39,-0.2 0.89,-0.42 1.29,-0.61 0.39,-0.2 0.89,-0.43 1.28,-0.62l35.41 -17.68c0.52,-0.26 2.01,-1.01 2.53,-1.27 1.07,-0.54 2.32,-1.16 3.79,-1.89l16.44 -8.22c0.39,-0.2 0.88,-0.44 1.26,-0.64l12.65 -6.32c0.38,-0.19 0.87,-0.43 1.26,-0.63 0.39,-0.19 0.88,-0.44 1.27,-0.63l13.9 -6.95c0.39,-0.2 0.88,-0.44 1.27,-0.64l13.9 -6.95c0.39,-0.19 0.88,-0.44 1.27,-0.63l13.91 -6.96c0.38,-0.19 0.87,-0.44 1.26,-0.63l6.32 -3.16c0.39,-0.19 0.88,-0.44 1.26,-0.63l6.32 -3.16c0.39,-0.19 0.88,-0.44 1.27,-0.63l8.85 -4.43c1.45,-0.72 3.61,-1.8 5.06,-2.52l6.32 -3.17c0.39,-0.19 0.88,-0.44 1.26,-0.63 0.39,-0.19 0.88,-0.44 1.27,-0.63l16.42 -8.23c0.38,-0.2 0.87,-0.46 1.25,-0.65l32.9 -14.51c1.08,-0.54 2.32,-1.16 3.79,-1.9l11.38 -5.69c3.73,-1.86 -2.6,1.31 2.53,-1.26 0.38,-0.19 0.87,-0.44 1.26,-0.63 0.39,-0.2 0.88,-0.44 1.27,-0.63l2.53 -1.27c0.38,-0.19 0.87,-0.44 1.26,-0.63l6.32 -3.16c1.08,-0.54 2.32,-1.16 3.8,-1.9 0.38,-0.19 0.87,-0.44 1.26,-0.63l2.53 -1.27c0.39,-0.19 0.87,-0.43 1.26,-0.63 0.52,-0.26 2.01,-1 2.53,-1.26 0.38,-0.19 0.88,-0.44 1.26,-0.63l5.06 -2.53c0.39,-0.2 0.88,-0.44 1.26,-0.64 0.39,-0.19 0.88,-0.43 1.27,-0.63l2.53 -1.26c0.38,-0.19 0.88,-0.44 1.26,-0.63 1.48,-0.74 2.72,-1.36 3.8,-1.9l10.11 -5.05c0.39,-0.2 0.87,-0.44 1.26,-0.64l10.12 -5.05c0.38,-0.2 0.87,-0.44 1.26,-0.64l2.53 -1.26c0.39,-0.2 0.88,-0.44 1.26,-0.63l82.18 -39.19c0.39,-0.2 0.88,-0.44 1.27,-0.64l15.17 -7.58c5.27,-2.64 -2.74,1.37 2.53,-1.27 0.51,-0.26 2.01,-1 2.53,-1.26 0.38,-0.2 0.87,-0.44 1.26,-0.63 0.38,-0.2 0.88,-0.44 1.26,-0.64 0.39,-0.19 0.88,-0.43 1.27,-0.63l2.53 -1.26c1.47,-0.74 2.72,-1.36 3.79,-1.9l10.11 -5.06c0.39,-0.19 0.88,-0.43 1.27,-0.63l6.32 -3.16c6.9,-3.45 -7.3,3.65 2.53,-1.26l35.32 -19.67c0.39,-0.2 0.9,-0.42 1.29,-0.61l51.62 -22.35c9.9,-2.76 14.24,-3.3 23.09,-0.43 6.57,2.13 9.8,0.61 16.37,2.61l35.02 10.48c0.47,0.15 0.99,0.28 1.45,0.45 4.01,1.39 0.65,0.07 4.06,1.63l25.21 16.51 -43.02 27.15c-0.36,0.21 -0.83,0.49 -1.18,0.72l-17.75 10.68c-0.4,0.19 -0.89,0.44 -1.28,0.63l-7.51 3.86c-0.34,0.22 -0.8,0.54 -1.12,0.77l-38.21 20.59c-2.99,1.65 -2.09,1.13 -4.58,3l-19.36 10.98c-0.39,0.2 -0.88,0.44 -1.27,0.64l-7.58 3.79c-0.52,0.26 -2.01,1 -2.53,1.26 -0.39,0.2 -0.88,0.44 -1.27,0.64l-2.52 1.26c-0.39,0.19 -0.88,0.44 -1.27,0.63l-3.79 1.9c-1.56,0.78 -0.97,0.48 -2.53,1.26l-60.68 32.24c-0.39,0.2 -0.88,0.44 -1.27,0.63l-16.43 8.22c-0.39,0.19 -0.88,0.44 -1.27,0.63l-13.91 6.96c-0.38,0.19 -0.87,0.43 -1.26,0.63l-10.11 5.05c-0.39,0.2 -0.88,0.44 -1.27,0.64l-2.53 1.26c-0.38,0.2 -0.87,0.44 -1.26,0.64l-20.23 10.11c-0.39,0.19 -0.87,0.44 -1.26,0.63 -0.39,0.19 -0.88,0.44 -1.27,0.63l-6.32 3.16c-0.38,0.19 -0.88,0.44 -1.26,0.63l-13.91 6.96c-0.39,0.19 -0.88,0.44 -1.26,0.63l-10.12 5.06c-0.39,0.19 -0.87,0.43 -1.26,0.63l-2.53 1.26c-0.39,0.2 -0.88,0.44 -1.27,0.64l-12.64 6.32c-0.38,0.19 -0.88,0.44 -1.26,0.63 -0.39,0.19 -0.88,0.44 -1.27,0.63l-6.32 3.16c-0.39,0.2 -0.87,0.44 -1.26,0.63l-6.33 3.16c-0.38,0.2 -0.87,0.44 -1.26,0.64l-68.32 34.08c-0.13,0.06 -3.56,1.78 -3.78,1.91 -0.35,0.21 -0.83,0.5 -1.17,0.72l-82.23 44.83c-0.39,0.2 -0.88,0.44 -1.27,0.64 -0.39,0.19 -0.87,0.43 -1.26,0.63l-2.53 1.26c-2.58,1.28 0.05,-0.01 -2.54,1.26l-3.83 1.85c-1.46,0.72 -3.55,1.72 -4.95,2.63l-16.49 10.06 0 11.38 6.32 3.17c4.27,2.13 -1.73,-0.87 2.53,1.26l59.34 27.88c0.46,0.16 0.93,0.37 1.39,0.51l54.61 15.56c0.46,0.16 0.95,0.33 1.42,0.48l88.17 33.19c0.46,0.16 0.95,0.34 1.41,0.49 1.85,0.6 2.66,0.72 4.4,1.29 0.48,0.15 0.99,0.28 1.46,0.44 0.45,0.16 0.96,0.32 1.4,0.49l42.04 16.75c2.17,0.72 3.63,1.07 5.8,1.79 0.45,0.16 0.94,0.34 1.4,0.5l9.98 3.3c8.97,2.99 15.49,5.72 25.48,6.76 15.26,1.58 1.17,1.31 11.96,3.48 9.69,1.95 8.87,-1.83 15.1,-3.1 3.08,-0.64 4.21,-0.23 7.07,-0.52l118.95 -49.84c0.35,-0.21 0.83,-0.49 1.17,-0.72l48.1 -25.85c0.39,-0.2 0.89,-0.44 1.28,-0.63 0.52,-0.25 2.04,-0.97 2.56,-1.22l285.67 -144.82c1.48,-0.73 2.72,-1.35 3.8,-1.89l7.58 -3.8c0.39,-0.19 0.88,-0.43 1.27,-0.63l29.08 -14.54c0.38,-0.19 0.88,-0.44 1.26,-0.63l13.91 -6.95c0.39,-0.19 0.87,-0.44 1.26,-0.63l6.32 -3.17c0.39,-0.19 0.88,-0.44 1.27,-0.63l6.32 -3.16c0.39,-0.19 0.88,-0.44 1.26,-0.63l13.91 -6.95c0.39,-0.2 0.88,-0.44 1.26,-0.64l29.08 -14.53c0.39,-0.2 0.88,-0.44 1.27,-0.63l13.9 -6.96c0.39,-0.19 0.88,-0.44 1.27,-0.63l13.9 -6.96c0.39,-0.19 0.88,-0.43 1.27,-0.63l6.32 -3.16c0.52,-0.26 2.01,-1 2.53,-1.26l53.1 -26.55c0.39,-0.2 0.87,-0.44 1.26,-0.64l10.12 -5.05c0.38,-0.2 0.87,-0.44 1.26,-0.64 0.39,-0.19 0.88,-0.43 1.27,-0.63l2.52 -1.26c1.48,-0.74 2.72,-1.36 3.8,-1.9l7.58 -3.79c0.39,-0.19 0.88,-0.44 1.27,-0.63l2.53 -1.26c1.55,-0.78 0.97,-0.49 2.53,-1.27l22.78 -11.35c0.35,-0.21 0.83,-0.51 1.16,-0.73 6.12,-4.08 4.12,-4.18 12.27,-6.7 0.48,-0.15 1.01,-0.26 1.48,-0.41l20.46 -9.89c0.82,-0.41 1.71,-0.85 2.53,-1.26l35.4 -15.81c0.07,-0.03 2.46,-1.23 2.53,-1.26 0.38,-0.19 0.88,-0.44 1.26,-0.63 0.39,-0.2 0.88,-0.44 1.26,-0.63l12.7 -6.28c0.39,-0.19 0.9,-0.41 1.29,-0.61 0.51,-0.26 2,-1.01 2.49,-1.3l13.72 -9.03c0.8,-0.56 3.25,-2.8 4.02,-3.57 5.03,-4.96 8.32,-10.9 15.09,-13.35l-5.04 -10.13c-0.36,-0.19 -0.87,-0.45 -1.25,-0.64l-35.43 -13.88c-0.45,-0.16 -0.93,-0.36 -1.39,-0.51l-16.25 -6.51c-3.44,-1.6 0.02,-0.23 -4.04,-1.64l-112.96 -38.75c-2.03,-0.65 -2.84,-0.89 -4.3,-1.39 -0.46,-0.16 -0.94,-0.35 -1.39,-0.51l-21.37 -7.08c-0.45,-0.15 -0.94,-0.35 -1.39,-0.5l-82.44 -27.55c-1.78,-0.6 -2.59,-0.76 -4.36,-1.33l-153.54 -51.28c-1.46,-0.5 -2.27,-0.74 -4.3,-1.39l-5.69 -1.9c-0.45,-0.15 -0.93,-0.35 -1.38,-0.5l-21.37 -7.08c-0.45,-0.16 -0.94,-0.36 -1.39,-0.51l-38.44 -12.76c-0.47,-0.16 -0.99,-0.29 -1.46,-0.44 -0.47,-0.15 -0.97,-0.31 -1.44,-0.46l-2.79 -1c-0.45,-0.16 -0.93,-0.35 -1.38,-0.51 -0.46,-0.16 -0.95,-0.34 -1.41,-0.49l-15.74 -5.12c-0.46,-0.16 -0.97,-0.31 -1.43,-0.47l-16.96 -5.79c-1.79,-0.59 -2.59,-0.75 -4.37,-1.33 -0.46,-0.15 -0.96,-0.31 -1.43,-0.46l-16.96 -5.8c-1.78,-0.59 -2.59,-0.75 -4.36,-1.33 -0.47,-0.15 -0.97,-0.31 -1.44,-0.46l-29.34 -10.48c-0.38,-0.2 -0.84,-0.49 -1.22,-0.68l-2.54 -1.25c-0.42,-0.18 -0.91,-0.38 -1.35,-0.55l-2.85 -0.93c-2.44,-0.79 -3.79,-1.1 -5.81,-1.78l-14.17 -4.8c-0.45,-0.16 -0.94,-0.34 -1.4,-0.49l-55.42 -18.54c-0.4,-0.18 -0.86,-0.46 -1.25,-0.65 -10.98,-5.46 -22.61,-7.99 -34.36,-11.16l-13.82 -3.25c-11.68,-4.02 -24.16,-7.83 -36.41,-9.09l-20.74 -3.92c-15.27,-2.19 -0.12,-3.57 -32.74,-3.6l-1.59 0 -0.63 0 -40.34 0 -0.66 0.09c-8.46,1.22 -3.66,1.05 -5.82,1.77l-29.3 8.63c-0.46,0.15 -0.97,0.31 -1.44,0.46l-31.23 10.49c-0.39,0.18 -0.86,0.45 -1.24,0.64 -0.92,0.46 -3.62,1.97 -3.7,2l-36.52 14.68c-0.46,0.15 -0.96,0.32 -1.41,0.49l-13.96 6.9c-0.39,0.19 -0.88,0.44 -1.27,0.63l-160.56 82.18c-0.38,0.19 -0.88,0.44 -1.26,0.63l-5.06 2.53c-0.39,0.19 -0.88,0.44 -1.27,0.63l-22.72 13.31c-0.39,0.19 -0.89,0.42 -1.28,0.61l-31.62 15.79c-1.48,0.74 -2.72,1.36 -3.8,1.9 -0.38,0.19 -0.87,0.44 -1.26,0.63l-10.11 5.06c-0.52,0.26 -2.01,1 -2.53,1.26 -0.39,0.19 -0.88,0.44 -1.26,0.63l-44.25 24.02c-1.07,0.54 -2.32,1.16 -3.8,1.9l-92.24 46.2c-0.34,0.22 -0.79,0.54 -1.12,0.78l-5.3 4.17c-0.35,0.22 -0.82,0.51 -1.18,0.72l-3.78 1.91c-0.39,0.2 -0.89,0.42 -1.28,0.62l-31.64 15.77c-1.1,0.55 -2.25,1.13 -3.8,1.89 -0.39,0.19 -0.88,0.43 -1.27,0.62l-22.74 13.3c-1.55,0.76 -2.69,1.34 -3.79,1.89l-97.36 50.57c-0.38,0.19 -0.87,0.44 -1.26,0.63l-85.97 44.88c-1.08,0.54 -2.32,1.16 -3.79,1.9 -0.39,0.19 -0.88,0.44 -1.27,0.63l-45.51 22.76c-0.39,0.19 -0.88,0.44 -1.27,0.63l-6.32 3.16c-0.39,0.19 -0.87,0.44 -1.26,0.63l-70.8 37.3c-0.39,0.19 -0.88,0.44 -1.26,0.63 -0.39,0.19 -0.88,0.44 -1.27,0.63l-5.06 2.53c-0.38,0.19 -0.87,0.44 -1.26,0.63l-16.43 8.22c-1.08,0.54 -2.32,1.16 -3.8,1.9 -0.38,0.19 -0.88,0.44 -1.26,0.63 -0.01,0 -2.52,1.26 -2.53,1.26l-15.23 7.54c-0.38,0.19 -0.89,0.41 -1.28,0.61 -2.57,1.32 -1.56,0.65 -3.67,2.02 -1.68,1.1 -1.13,0.88 -3.21,2.48 -8.09,6.2 -18.14,10.02 -27.18,14.54 -0.39,0.19 -0.88,0.43 -1.27,0.63l-2.52 1.26c-0.39,0.2 -0.88,0.44 -1.27,0.63l-36.66 18.34c-0.39,0.19 -0.88,0.44 -1.27,0.63l-8.85 4.42c-0.38,0.2 -0.87,0.44 -1.26,0.64l-25.34 14.48c-0.34,0.22 -0.82,0.51 -1.18,0.72l-11.41 5.65c-0.44,0.23 -2.09,1.05 -2.53,1.27 -1.06,0.53 -2.32,1.16 -3.79,1.9 -0.39,0.19 -0.88,0.44 -1.27,0.63l-10.11 5.06c-0.39,0.19 -0.87,0.43 -1.26,0.63 -1.48,0.74 -2.72,1.35 -3.79,1.89l-2.54 1.27c-0.38,0.19 -0.87,0.43 -1.26,0.63 -0.52,0.26 -2.01,1.01 -2.53,1.26l-22.76 11.38c-0.38,0.2 -0.87,0.44 -1.26,0.64l-40.46 22.12c-0.38,0.19 -0.87,0.44 -1.26,0.63l-10.11 5.06c-0.52,0.26 -2.01,1 -2.53,1.26 -0.39,0.2 -0.88,0.44 -1.27,0.63 -0.38,0.2 -0.87,0.44 -1.26,0.64l-2.53 1.26c-1.06,0.53 -1.32,0.67 -2.53,1.27 -0.39,0.19 -0.87,0.44 -1.26,0.63 -0.39,0.19 -0.88,0.44 -1.27,0.63l-2.53 1.26c-1.06,0.54 -1.32,0.67 -2.52,1.27l-32.88 16.43c-0.44,0.22 -2.08,1.05 -2.52,1.27l-25.26 14.57c-0.39,0.19 -0.89,0.42 -1.28,0.61 -0.52,0.26 -2.02,1 -2.54,1.26 -0.39,0.19 -0.88,0.44 -1.26,0.63 -0.39,0.19 -0.88,0.43 -1.27,0.63l-35.4 17.7z"/>
   <path fill="#333645" d="M795.36 2308.72l-26.55 0c0,12.8 -3.13,12.39 -8.96,21.39l-23.08 35.7c-0.23,0.33 -0.56,0.78 -0.78,1.12l-22.81 45.46c-0.19,0.38 -0.44,0.88 -0.63,1.26 -0.41,0.82 -0.85,1.71 -1.27,2.53 -0.19,0.38 -0.44,0.88 -0.63,1.26l-8.77 21.57c-0.25,0.54 -1.03,1.99 -1.29,2.51 -0.19,0.38 -0.46,0.86 -0.65,1.24 -0.2,0.38 -0.46,0.87 -0.65,1.25l-68.36 136.45c-1.58,3.47 -0.24,-0.05 -1.63,4.07 -1.14,3.39 -0.91,4.02 -2.15,7.33l-19.54 43.04c-0.19,0.39 -0.43,0.87 -0.63,1.26l-15.04 34.26c-0.16,0.47 -0.34,0.95 -0.49,1.42l-1.28 4.4c-0.16,0.47 -0.29,0.99 -0.45,1.45 -4.33,12.46 -6.76,8.88 -6.76,25.48 15.07,0 148.8,2.97 163.13,-1.86 0.45,-0.15 0.9,-0.4 1.35,-0.54l9.49 -1.89c8.56,-1.9 -0.12,0.13 5.74,-1.85 1.79,-0.61 3.3,-1.03 5.76,-1.82l5.56 -2.02c0.18,-0.08 4.35,-2.24 4.97,-2.63l8.81 -13.94 7.59 0 5.66 11.41c3.69,7.61 10.95,12.44 13.3,18.93l22.76 0c2.06,5.1 -1.13,1.83 4.1,3.49 14.5,4.6 62.67,-4.56 84.45,2.78 10.79,3.63 23.26,-0.25 34.63,1.41 13.83,2.02 -2.28,1.62 11.55,3.61 4.93,0.71 12.02,-0.39 17.05,0.02 12.26,1.02 2.92,3.45 30.41,3.73l12.56 2.61c7.13,2.35 8.46,0.51 15.62,1.44l46.48 10.42c4.43,1.18 4.34,0.47 8.58,0.9l10.45 2.83c0.5,0.14 1,0.26 1.51,0.38 2.72,0.64 3.84,0.4 6.56,1.03l111.5 34.52c0.46,0.15 0.95,0.34 1.41,0.49l21.42 7.03c0.45,0.15 0.96,0.32 1.4,0.49l37.93 15.17c0.57,0.21 2.12,0.89 2.66,1.13l12.49 6.47c0.41,0.19 0.89,0.42 1.31,0.6 0.42,0.17 0.92,0.37 1.35,0.54l54.25 25.39c0.34,0.23 0.8,0.55 1.12,0.78l20.04 12.21c1.88,1.41 3.35,2.76 4.24,3.34l6.27 3.22c0.4,0.18 0.9,0.4 1.3,0.59 0.39,0.19 0.9,0.41 1.29,0.6 0.52,0.27 2.01,1.01 2.5,1.3 0.35,0.21 0.83,0.5 1.17,0.72l11.4 7.57c0.01,0 2.59,1.19 2.6,1.19 1.47,0.71 3.57,1.71 4.97,2.62l59.53 42.88c2.11,1.37 1.12,0.7 3.66,2.02l32.64 6.58c0.53,-0.11 1.01,-0.24 1.52,-0.38l12.77 -6.2c2.54,-1.32 1.55,-0.65 3.66,-2.02l8.92 -6.26c0.37,-0.21 0.88,-0.44 1.25,-0.65l13.89 -10.76c0.36,-0.21 0.88,-0.44 1.24,-0.66l8.93 -6.23c0.37,-0.22 0.88,-0.45 1.24,-0.66l48.06 -37.28c0.36,-0.21 0.87,-0.45 1.23,-0.66 0.36,-0.22 0.87,-0.46 1.23,-0.67l5.5 -3.98c0.33,-0.24 0.76,-0.59 1.09,-0.81l6.04 -3.45c0.34,-0.22 0.83,-0.5 1.16,-0.73 1.29,-0.92 2.89,-2.61 3.95,-3.64l20.19 -13.94c0.35,-0.22 0.85,-0.48 1.19,-0.7l45.69 -28.28c14.17,-7.16 2.69,-3.55 16.34,-10.21 0.39,-0.19 0.89,-0.43 1.28,-0.61l5.09 -2.5c0.52,-0.26 2.04,-0.97 2.56,-1.23 1.46,-0.72 3.55,-1.72 4.95,-2.63l8.83 -6.35c0.5,-0.27 2.03,-0.98 2.55,-1.24 17.31,-8.58 17.67,-10.82 27.84,-15.78l8.88 -4.4c0.39,-0.19 0.88,-0.43 1.26,-0.63 2.61,-1.29 -0.08,0.03 2.54,-1.26l3.84 -1.85c0.51,-0.26 2.04,-0.96 2.55,-1.24l66.93 -35.48c5.6,-2.83 -3.06,1.59 2.51,-1.27l56.03 -23.62c0.48,-0.16 1,-0.26 1.48,-0.42l27.09 -8.94c0.45,-0.16 0.93,-0.35 1.39,-0.51l112.4 -29.83c0.45,-0.14 0.9,-0.39 1.35,-0.54l13.11 -2.07c10.61,-1.49 2.17,-0.61 7.27,-2.2l10.99 -2.29c19.34,-5.42 21.7,-0.86 31.82,-4.21l14.39 -2.67c8.72,-1.25 1.45,-2.11 21.07,-3.6 8.74,-0.66 6.71,-3.2 20.89,-3.76l33.52 -6.3c4.18,-1.4 2.35,-1.24 8.04,-1.45 25.94,-0.95 13.38,-1.93 36.16,-3.66 8.62,-0.65 9.07,-4.06 22.76,-3.79 10.2,0.19 11.51,-1.81 19.35,-3.4 3.44,-0.69 5.75,-0.23 9.12,-0.37l9.46 -1.92c5.34,-1.87 16.13,-1.48 22.75,-3.79 10.03,-3.52 12.6,-0.55 24.08,-4.38 7.37,-2.46 14.9,0.14 22.65,-2 7.58,-2.1 -2.74,0.19 6.37,-3.11l0 -7.58c-5.28,-1.91 -6.56,-5.01 -8.91,-10.06l-72.44 -122.89c-0.23,-0.33 -0.55,-0.78 -0.77,-1.12l-56.09 -97.52c-0.23,-0.33 -0.54,-0.8 -0.75,-1.15 -1.52,-2.34 -0.75,-1.53 -2.04,-3.64l-15.83 -27.8c-0.21,-0.34 -0.54,-0.79 -0.77,-1.12l-15.55 -20.48c-0.22,-0.35 -0.47,-0.86 -0.68,-1.22l-7.56 -11.41c-4.7,-7.63 -8.03,-6.48 -8.25,-16.39l-35.38 -17.86c-7.78,-2.84 -13.62,0.43 -19.02,3.27l-107.43 57.57c-0.52,0.26 -2.01,1 -2.53,1.26l-88.44 44.31c-0.34,0.22 -0.8,0.54 -1.12,0.78l-14.1 8.65c-2.62,1.29 0.08,-0.03 -2.54,1.26l-83.04 44.01c-1.9,1.43 -3.34,2.75 -4.24,3.34 -1.41,0.92 -3.5,1.92 -4.96,2.64l-10.16 5.01c-19.88,9.93 -44.83,19.33 -62.35,32.47 -12.21,9.16 -28.81,15 -42.58,21.89 -0.28,0.14 -2.07,1.03 -2.54,1.26l-21.49 10.75c-0.38,0.19 -0.87,0.44 -1.26,0.63l-15.12 7.64c-0.34,0.22 -0.79,0.54 -1.12,0.78l-8.97 6.19c-0.39,0.2 -0.9,0.42 -1.29,0.61l-110.01 58.78c-0.18,0.1 -3.61,1.83 -3.77,1.91l-16.02 6.74c-14.36,4.74 -34.46,3.38 -51.78,3.43 -10.48,0.03 -12.7,-1.81 -20.32,-4.33l-22.76 -7.59c-0.47,-0.15 -0.97,-0.31 -1.43,-0.46 -0.46,-0.16 -0.95,-0.34 -1.4,-0.5l-45.72 -16.87c-0.52,-0.25 -1.97,-1.04 -2.48,-1.31 -0.38,-0.19 -0.87,-0.44 -1.25,-0.64l-2.5 -1.29c-0.38,-0.2 -0.87,-0.45 -1.25,-0.65 -0.51,-0.26 -1.96,-1.05 -2.49,-1.31l-43 -15.79c-0.43,-0.16 -0.93,-0.36 -1.35,-0.54l-2.54 -1.25c-0.93,-0.46 -3.59,-1.95 -3.69,-2 -0.53,-0.25 -2.08,-0.94 -2.64,-1.15l-49.06 -17.31c-0.46,-0.16 -0.96,-0.33 -1.4,-0.5 -0.44,-0.17 -0.93,-0.37 -1.35,-0.55 -0.41,-0.17 -0.9,-0.42 -1.3,-0.6l-29.05 -10.78c-0.4,-0.17 -0.89,-0.41 -1.29,-0.6l-4.94 -2.64c-0.53,-0.26 -2.08,-0.94 -2.64,-1.16l-8.67 -2.71c-0.58,-0.19 -2.2,-0.81 -2.78,-1l-39.01 -14.1c-0.43,-0.16 -0.93,-0.36 -1.35,-0.54 -0.41,-0.18 -0.89,-0.42 -1.29,-0.6l-16.25 -6.51c-4.43,-1.49 1.64,0.48 -2.79,-1.01l-7.26 -2.22c-0.46,-0.16 -0.96,-0.33 -1.41,-0.49l-30.34 -11.38c-0.43,-0.17 -0.92,-0.37 -1.34,-0.55 -0.42,-0.18 -0.9,-0.42 -1.3,-0.6l-56.64 -21.11c-0.45,-0.16 -0.96,-0.33 -1.4,-0.5l-7.58 -3.8c-0.4,-0.18 -0.89,-0.42 -1.3,-0.6l-27.02 -9c-0.48,-0.16 -1,-0.27 -1.48,-0.42l-83.92 -31.77c-0.58,-0.19 -2.2,-0.81 -2.78,-1l-69.61 -27.12c-2.62,-0.89 -3.3,-0.77 -5.92,-1.66 -0.46,-0.15 -0.96,-0.32 -1.41,-0.49l-21.67 -8.66c-0.47,-0.16 -0.95,-0.34 -1.41,-0.49l-45.07 -17.52c-6.11,-2.03 -14.51,-0.95 -16.61,-6.14z"/>
  </g>
 </g>
</svg>
