<svg xmlns="http://www.w3.org/2000/svg"  viewBox="0 0 100 100" width="500px" height="500px"><circle cx="13" cy="29" r="2" fill="#ee3e54"/><circle cx="77" cy="13" r="1" fill="#f1bc19"/><circle cx="50" cy="50" r="37" fill="#fce0a2"/><circle cx="83" cy="15" r="4" fill="#f1bc19"/><circle cx="87" cy="24" r="2" fill="#ee3e54"/><circle cx="81" cy="76" r="2" fill="#fbcd59"/><circle cx="15" cy="63" r="4" fill="#fbcd59"/><circle cx="25" cy="87" r="2" fill="#ee3e54"/><circle cx="19.5" cy="54.5" r="2.5" fill="#fff"/><circle cx="21" cy="67" r="1" fill="#f1bc19"/><circle cx="80" cy="34" r="1" fill="#fff"/><g><circle cx="50" cy="50" r="24.25" fill="#8889b9"/><path fill="#472b29" d="M50,74.95c-13.758,0-24.95-11.192-24.95-24.95S36.242,25.05,50,25.05S74.95,36.242,74.95,50 S63.758,74.95,50,74.95z M50,26.45c-12.985,0-23.55,10.564-23.55,23.55S37.015,73.55,50,73.55S73.55,62.986,73.55,50 S62.985,26.45,50,26.45z"/></g><g><path fill="#fff" d="M38.803,45.758c-3.592-1.751-4.85-1.976-7.634-1.796c-2.784,0.18-2.784,1.572-2.111,1.617 c0.674,0.045,0.853,0.09,0.853,0.09l0.135-0.314l-0.808-0.359c0,0,3.503-0.898,7.858,1.212s5.478,4.85,4.266,6.197 c-1.212,1.347-3.323,2.021-5.927,1.437C35.39,52,35.48,50.653,35.48,50.653s2.425-0.09,3.054,0.359 c0.629,0.449,0.09,0.718-0.314,0.853c0.584,0.359,1.033,0.494,1.437,0c0.404-0.494,0.853-2.604-4.086-2.47 c-0.09-0.853,0.18-1.437-0.539-2.29c-0.718-0.853-0.718,2.335-0.718,2.335s-1.841,0.269-3.368,1.347 c-1.527,1.078,3.143,3.682,3.143,3.682s0.09,1.168,0.763,1.302s0.629-0.853,0.629-0.853s4.041,1.168,6.736-1.212 C44.91,51.326,42.395,47.509,38.803,45.758z M34.133,53.526c0,0-1.527-0.629-2.38-1.392s-0.584-0.898-0.18-0.988 c0.404-0.09,1.976-0.494,2.649-0.494L34.133,53.526z"/><path fill="#fff" d="M43.967,49.665c0,0-0.225,2.604-0.135,4.221c0.045,0.674,1.123,0.808,1.123,0.135 c0-0.674-0.045-3.368-0.135-3.907C44.73,49.575,44.236,49.126,43.967,49.665z"/><path fill="#fff" d="M50.074,49.35c0,0-2.47-0.539-4.131,0.539c-0.808,0.539-0.584,1.527-0.135,1.572 c0.449,0.045,2.739,0.135,3.278,0.494c0.539,0.359,0.674,0.629,0.09,0.988c-0.584,0.359-1.886,0.539-2.425,0.359 s-0.718-1.123,0.269-0.629c0.988,0.494,2.784-0.09,1.572-0.494c-1.212-0.404-2.2-0.314-2.829,0.135 c-0.629,0.449,0.225,1.392,0.943,1.706c0.718,0.314,2.066,0.404,2.874-0.09c0.808-0.494,1.212-2.38-0.09-2.694 c-1.302-0.314-2.111-0.269-2.694-0.359c-0.584-0.09-0.314-0.314,0.629-0.404c0.943-0.09,1.617-0.135,2.425-0.269 C50.657,50.069,50.702,49.485,50.074,49.35z"/><path fill="#fff" d="M53.397,50.024c0.09,0.404,0.449,1.931,0.449,2.56c-0.449-0.674-1.168-2.021-1.796-2.649 c-0.629-0.629-0.808-0.09-0.808-0.09s-0.629,2.29-0.449,3.772c0.18,1.482,0.943,0.449,0.988,0s0.135-1.931,0.135-2.335 c0.404,0.898,1.033,1.931,1.527,2.425c0.494,0.494,0.988,0.18,1.168-0.269c0.18-0.449,0.763-2.874-0.629-4.49 S53.307,49.62,53.397,50.024z"/><path fill="#fff" d="M58.201,52.763c-0.494,0.045-1.931,0.269-1.931,0.269l0.314-0.943c0,0,0.943,0.045,1.706-0.045 s0.225-0.943-0.045-0.943c-0.269,0-1.257,0-1.257,0l0.225-0.629c0,0,1.661-0.045,2.2-0.135s-0.314-0.988-0.943-1.033 c-0.629-0.045-1.976,0.135-2.874,0.314c-0.898,0.18,0.584,0.853,0.584,0.853s-0.135,0.449-0.314,0.763 c-0.539,0.09-0.494,0.404-0.314,0.808c-0.359,0.943-0.539,2.111,0.494,2.47c1.033,0.359,2.245-0.584,2.739-0.988 S58.695,52.718,58.201,52.763z"/><path fill="#fff" d="M62.018,50.114c-0.674,0.674-1.841,2.425-1.841,2.425c0.135-1.168,0.449-1.482,1.168-2.649 c0.614-0.997-0.359-0.629-0.359-0.629s-2.29,1.931-1.302,4.131c-0.674,1.661-1.751,4.041-0.18,5.299 c0.404,0.269,0.269-0.539,0.404-0.988c0.135-0.449,0.584-2.739,1.033-3.368c1.078-0.09,3.009-0.494,3.323-3.413 C64.398,49.036,62.692,49.44,62.018,50.114z M63.41,51.596c-0.449,1.212-1.976,1.392-1.976,1.392s0.988-1.617,1.482-2.066 C63.41,50.473,63.859,50.383,63.41,51.596z"/><path fill="#fff" d="M46.706,47.509c0.898-0.898,1.302-2.56-0.269-2.47c0,0-0.584-0.763-1.841-0.404 c-1.257,0.359-2.829,2.021-1.706,3.098c0,0.494,0.135,1.437,0.808,0.584C44.416,48.632,45.808,48.407,46.706,47.509z M43.293,47.015c-0.135-0.674,0.225-1.302,1.392-1.527C44.685,45.489,43.473,46.476,43.293,47.015z M45.987,45.893 c1.257-0.494,0.853,0.718,0.18,1.212c-0.674,0.494-1.347,0.629-2.155,0.404C44.012,47.509,44.73,46.387,45.987,45.893z"/><path fill="#fff" d="M72.016,50.653h-2.703c-0.056-0.894-0.163-1.847-0.361-2.744c-0.011-0.05-0.053-0.089-0.103-0.093 c-0.296-0.023-0.349-0.007-0.711,0.002c-0.099,0.003-0.168,0.096-0.142,0.191c0.112,0.413,0.22,1.467,0.274,2.643h-2.567 c-0.079,0-0.146,0.065-0.15,0.143l-0.068,0.681c-0.005,0.109,0.088,0.198,0.197,0.186l2.619,0.009 c0.015,0.964-0.013,1.914-0.113,2.587c-0.01,0.068,0.043,0.125,0.111,0.129c0.412,0.025,0.726,0.033,0.882,0.035 c0.063,0.001,0.114-0.046,0.119-0.109c0.024-0.327,0.086-1.355,0.056-2.639l2.659,0.009c0.083,0,0.15-0.067,0.15-0.151v-0.732 C72.167,50.72,72.099,50.653,72.016,50.653z"/><g><path fill="#472b29" d="M68.083,46c-0.183,0-0.359-0.101-0.447-0.276c-5.633-11.258-15.157-10.801-18.994-10.08 c-0.268,0.05-0.533-0.127-0.584-0.399c-0.051-0.271,0.128-0.533,0.398-0.584c4.059-0.761,14.136-1.253,20.074,10.616 c0.123,0.247,0.023,0.547-0.224,0.671C68.235,45.983,68.158,46,68.083,46z"/></g><g><path fill="#472b29" d="M41.242,38.522c-0.165,0-0.327-0.082-0.422-0.232c-0.148-0.233-0.079-0.542,0.154-0.69 c1.474-0.935,3.085-1.691,4.791-2.249c0.263-0.086,0.544,0.057,0.631,0.32c0.086,0.262-0.058,0.545-0.32,0.631 c-1.627,0.531-3.163,1.252-4.566,2.143C41.427,38.497,41.334,38.522,41.242,38.522z"/></g><g><path fill="#472b29" d="M36.833,42.606c-0.098,0-0.196-0.028-0.282-0.087c-0.228-0.156-0.286-0.467-0.131-0.695 c0.648-0.948,1.491-1.864,2.505-2.723c0.21-0.178,0.526-0.153,0.705,0.058c0.178,0.211,0.152,0.526-0.059,0.705 c-0.945,0.802-1.729,1.651-2.325,2.524C37.148,42.53,36.992,42.606,36.833,42.606z"/></g></g></svg>